# xmcd
#
# Track frame offsets:
#	150
#	15054
#	32075
#	47317
#	63316
#	76100
#	98906
#	112288
#	124354
#	138612
#	153410
#
# Disc length: 2263 seconds
#
# Revision: 3144520866
# Processed by: cddbd v1.5.2PL0 Copyright (c) Steve Scherf et al.
# Submitted via: EZCDAudioConverter 8.1.0.1
#
DISCID=8608d50b
DTITLE=The Devil Makes Three - Chains Are Broken
DYEAR=2018
DGENRE=Country
TTITLE0=Chains Are Broken
TTITLE1=Pray For Rain
TTITLE2=Paint My Face
TTITLE3=Can't Stop
TTITLE4=Need To Lose
TTITLE5=All Is Quiet
TTITLE6=Bad Idea
TTITLE7=Deep Down
TTITLE8=Native Son
TTITLE9=Castles
TTITLE10=Curtains Rise
EXTD=
EXTT0=
EXTT1=
EXTT2=
EXTT3=
EXTT4=
EXTT5=
EXTT6=
EXTT7=
EXTT8=
EXTT9=
EXTT10=
PLAYORDER=
